<?xml version="1.0" encoding="UTF-8" standalone="no"?>
<svg width="17px" height="17px" viewBox="0 0 17 17" version="1.1" xmlns="http://www.w3.org/2000/svg" xmlns:xlink="http://www.w3.org/1999/xlink" xmlns:sketch="http://www.bohemiancoding.com/sketch/ns">
    <!-- Generator: Sketch 3.4.2 (15855) - http://www.bohemiancoding.com/sketch -->
    <title>github</title>
    <desc>Created with Sketch.</desc>
    <defs></defs>
    <g id="Page-1" stroke="none" stroke-width="1" fill="none" fill-rule="evenodd" sketch:type="MSPage">
        <g id="Desktop" sketch:type="MSArtboardGroup" transform="translate(-333.000000, -1063.000000)" fill="#FFFFFF">
            <g id="Archi" sketch:type="MSLayerGroup" transform="translate(100.000000, 911.000000)">
                <path d="M233,160.500261 C233,164.255717 235.43528,167.441358 238.812947,168.565333 C239.238221,168.643605 239.393198,168.381135 239.393198,168.155714 C239.393198,167.953774 239.385893,167.419442 239.381718,166.710304 C237.017404,167.223764 236.518555,165.570674 236.518555,165.570674 C236.131895,164.588631 235.574603,164.327205 235.574603,164.327205 C234.802848,163.800178 235.633046,163.810614 235.633046,163.810614 C236.486203,163.870622 236.934958,164.686731 236.934958,164.686731 C237.693146,165.985512 238.924614,165.610332 239.408852,165.392738 C239.48608,164.843795 239.705761,164.469137 239.948402,164.25676 C238.061021,164.042297 236.076583,163.312809 236.076583,160.05568 C236.076583,159.127904 236.407931,158.368673 236.951656,157.774855 C236.863992,157.55987 236.572301,156.695233 237.035145,155.525338 C237.035145,155.525338 237.748458,155.296786 239.372326,156.396759 C240.050155,156.207864 240.777556,156.113938 241.500261,156.110286 C242.222444,156.113938 242.949323,156.207864 243.628196,156.396759 C245.251021,155.296786 245.963289,155.525338 245.963289,155.525338 C246.427177,156.695233 246.135486,157.55987 246.048344,157.774855 C246.593112,158.368673 246.921851,159.127904 246.921851,160.05568 C246.921851,163.321158 244.934283,164.039688 243.041161,164.249977 C243.345898,164.512447 243.61776,165.031124 243.61776,165.823751 C243.61776,166.96025 243.607324,167.877068 243.607324,168.155714 C243.607324,168.383222 243.760735,168.647779 244.191749,168.564812 C247.566807,167.438227 250,164.254673 250,160.500261 C250,155.80555 246.193929,152 241.499217,152 C236.806071,152 233,155.80555 233,160.500261 Z" id="github" sketch:type="MSShapeGroup"></path>
            </g>
        </g>
    </g>
</svg>